<svg id="e9XasqF5J4N1" xmlns="http://www.w3.org/2000/svg" xmlns:xlink="http://www.w3.org/1999/xlink" viewBox="0 0 560 480" shape-rendering="geometricPrecision" text-rendering="geometricPrecision"><g transform="translate(-225.60582-234.816604)"><path d="M513.28,446.15q-84.37-.07-168.77.12-5.09.01-7.77.98c-12.19,4.41-11.96,21.38-.85,26.36q2.95,1.32,8.44,1.31q70.4-.23,119.56-.2c9.74.01,18.33,6.24,17.77,16.36-.34,6.02-5.15,12.08-11.11,13.7q-2.68.73-5.45.74-88.49.26-162.53.12c-6.8-.01-14.03,7.21-11.77,14.19c2.02,6.23,6.47,9.55,12.71,9.55q93.68.03,189.22-.15q9.04-.01,16.29.77q22.53,2.43,42.62,14.19c3.48,2.04,6.56,4.8,9.86,7.21q3.88,2.83,7.11,5.96c10.67,10.29,19.81,23.85,23.42,38.39c1.85,7.45,3.49,15.43,1.9,22.86q-.35,1.61.98.63c6.01-4.47,12.62-8.71,17.79-13.53q15.94-14.86,26.25-32.97q6.36-11.17,10.46-27.17q1.99-7.74,2.39-18.57.36-9.71.21-18.66c-.00726-.320833-.205724-.602652-.5-.71q-19.6-7.24-38.5-15.85-13.27-6.05-28.32-18.27" fill="none" stroke="#763108" stroke-width="2"/><path d="M584.69,473.51q-17.37-16.14-28.1-36.11-15.41-28.69-14.53-62.86c.36-14.03,2.83-27.84,8.09-40.89c4.35-10.8,8.38-21.19,15.36-30.36q6.48-8.52,13.12-15.33c8.33-8.54,18.41-15.23,28.58-21.45q.5-.3.63-.87.09-.4-.18-.69c-.390417-.434891-.952945-.694519-1.56-.72q-8.49-.39-16.44-.2c-19.75.46-40.36,7.33-57.14,17.13q-16.2,9.46-32.97,23.19c-15.52,12.72-32.34,24.79-51.79,30.46-6,1.75-12.79,2.88-18.94,2.89q-86.01.13-173.15.12-2.82,0-5.13.26c-8.27.92-13.33,8.65-9.62,16.45q3.22,6.78,12.33,6.69q50.27-.47,134.25-.06q28.91.14,56.4-.03q5.9-.04,8.95,1.26q8.19,3.47,8.86,12.89.31,4.32-2.07,7.63c-4.49,6.25-11.08,7.92-18.4,7.2-10.57-1.04-16.96,9.09-12.3,18.28q3.35,6.62,11.06,6.56q32.84-.25,69.5-.42c8.2-.04,15.59.75,20.01,8.33c3.86,6.63,2.62,14.03-3.1,18.84q-5.41,4.54-13.13,4.45" fill="none" stroke="#7d3508" stroke-width="2"/><path d="M584.69,473.51q.21.71-.43.86-.79.2-.25.77.32.33.12.86-.11.29.2.32.15.01.29.04c.211598.036726.392926.187832.48.4q.07.14-.01.3-.12.26-.4.19-3.88-1.09-7.71-2.33-1.62-.53-3.32-.75-1.65-.22-3.09-.77-.97-.37-2.01-.42-1.67-.07-2.8-1.21-.51-.53-1.24-.4-1.28.23-2.31-.62-.61-.5-1.4-.53-1.12-.04-1.85-.85-1.41-1.55-3.24-2.21-1.76-.64-3.3-1.81-.94-.72-2.05-1.08-.95-.31-1.83-.79-1.94-1.08-4.15-1.18-.37-.01-.26-.34.01-.06.01-.12-.07-.52-.58-.82-1.28-.74-2.65-1.25-1.69-.62-2.67-1.17-4.03-2.23-8.65-4.3-.89-.4-1.56-.97-1-.85-2.19-1.28c-.227869-.078283-.426748-.224826-.57-.42q-.68-.88-1.68-.38-.27.14-.44-.11-.93-1.4-2.43-1.9-.27-.09-.42-.35-.23-.39.01-.75.21-.31-.12-.48-1.11-.57-2.35-.74-.32-.04-.59.14-.7.47-1.6.57c-.239208.032506-.482378-.016833-.69-.14q-1.14-.66-2.54-.38-.07.01-.07-.06q0-.04,0-.08.01-.17.18-.16.36.02.7-.08.2-.06.05-.58" fill="none" stroke="#f35300" stroke-width="2"/><path d="M721.36,341.4q-.16-.44.24-.19L738,351.44c.131999.081273.297025.087093.43442.015319s.226887-.21055.23558-.365319c1.2-22.93-6.69-45.34-23.45-60.93q-17.23-16.02-40.4-17.48c-12.1-.76-24.33,2.37-34.44,8.8q-12.04,7.66-16.61,21.03-1.84,5.36-.36,11.14c.077749.324822.366033.555449.7.56q2.88.04,5.91.08c5.12.08,9.81-2.24,14.95-2.41q13.93-.48,20.79,12.25q3.9,7.24,3.37,15.27c-1.14,17.35-13.97,31.1-29.94,36.49q-8.88,3-20.3,1.84-9.07-.91-18.68-5.45-7.85-3.71-13.52-10.72-.41-.51-1.06-.5l-25.7.25q-.92.01-.61.87c7.56,20.75,25.81,32.74,47.97,32.02q.61-.02.56.59-.49,5.25-.1,9.85q2.35,27.59,23.84,43.4q5.6,4.12,18.98,12.54c15.72,9.9,29.53,29.34,31.07,47.87q.36,4.41.67,8.44c.16,2.06-.19,3.96-.34,5.99q-.07.91.66.37q9.34-6.91,13.95-11.67q7.39-7.62,15.81-20.59q3.44-5.3,6.06-12q.35-.89.45-1.82c.016998-.177401-.040738-.353696-.158903-.485202s-.285701-.205918-.461097-.204798l-13.81.01c-.156285-.002764-.29994-.086431-.379459-.221001s-.08351-.300767-.010541-.438999q4.1-7.46,9.14-14.65c.225026-.31945.59205-.506707.98-.5l23.3.29c.954321.011711,1.841852-.483478,2.33-1.3q6.57-10.88,14.02-21.4c.15299-.212789.172412-.493132.050347-.726739s-.365224-.381451-.630347-.383261q-12.88.01-26.84.17c-4.89.06-9-1.9-10.46-6.63q-1.79-5.8,2.4-10.32q2.1-2.26,4.83-2.25q13.39.09,29.78-.05c.143778-.001657.277212-.075069.355575-.195626s.091281-.272305.034425-.404374q-7.98-18.69-17.24-39.17c-2.72-6.01-5.06-12.31-7.78-18.44-2.68-6.05-4.83-12.36-6.99-18.47" fill="none" stroke="#7d3508" stroke-width="2"/><path d="M356.01,295.59c0-7.052676-5.717324-12.77-12.77-12.77s-12.77,5.717324-12.77,12.77c0,3.386814,1.345407,6.634914,3.740246,9.029753s5.642939,3.740247,9.029754,3.740247s6.634914-1.345407,9.029754-3.740246s3.740246-5.642939,3.740246-9.029754" fill="none" stroke="#7d3508" stroke-width="2"/><path d="M453.92,305.68c4.57-2.37,6.62-6.72,5.97-11.78-1.12-8.76-7.6-11.04-15.57-10.99q-16.18.12-33.8-.05-4.04-.04-7.22.37c-11.03,1.43-15.27,16.66-5.24,22.53q2.34,1.37,7.14,1.33q18.64-.17,37.23-.1c4.28.01,7.42.8,11.49-1.31" fill="none" stroke="#7d3508" stroke-width="2"/><path d="M623.71,331.93c-10.07-.22-16.77-8.51-18.24-18.07-1.12-7.26-.97-13.42,2.03-20.52.147829-.347715.087387-.74838-.1567-1.038759s-.631074-.422001-1.0033-.341241c-1.19.26-2.5.43-3.51,1.19q-11.36,8.42-14.47,21.83c-4.3,18.5,7.79,38.03,26.39,42.52q5.46,1.31,10.24,1.26c10.65-.13,20.87-6.1,24.66-16.5c1.11-3.07.34-6.17.32-9.3q0-.82-.82-.82-14.33.03-25.44-.21" fill="none" stroke="#808987" stroke-width="2"/><path d="M260.6589,401.4286c-.475327-3.339911-2.301774-6.347967-5.077539-8.362429s-6.273473-2.870311-9.723661-2.379271c-7.184584,1.022546-12.206415,7.489553-11.2166,14.4445.475327,3.339911,2.301774,6.347967,5.077539,8.362429s6.273473,2.870311,9.723661,2.379271c7.184584-1.022546,12.206415-7.489553,11.2166-14.4445" fill="none" stroke="#763108" stroke-width="2"/><path d="M393.3632,402.3809c.044947-6.433948-5.134352-11.686135-11.5683-11.7311l-31.3793-.219c-6.433909-.044892-11.686035,5.134391-11.731,11.5683l-.0078,1.12c-.044947,6.433948,5.134352,11.686135,11.5683,11.7311l31.3793.219c6.433909.044892,11.686035-5.134391,11.731-11.5683l.0078-1.12" fill="none" stroke="#763108" stroke-width="2"/><path d="M294.2981,460.8534c-.303891-7.250626-6.60247-12.874769-14.0683-12.5619-3.585243.150262-6.965672,1.677553-9.397627,4.245884s-3.716221,5.967318-3.570273,9.449216c.303891,7.250626,6.60247,12.874769,14.0683,12.5619c3.585243-.150262,6.965672-1.677553,9.397627-4.245884s3.716221-5.967318,3.570273-9.449216" fill="none" stroke="#763108" stroke-width="2"/><path d="M751.01,630.21c-.112519.042445-.241283.00623-.32-.09l-55.03-66.39c-.100006-.120614-.246707-.19285-.403284-.198578s-.308163.055594-.416716.168578l-15.32,15.97q-.68.72-.68,1.7l-.3,102.4c0,.193608.07691.379286.213812.516188s.32258.213812.516188.213812l25.54-.12c.381076,0,.69-.308924.69-.69l.03-64.73c.003494-.19116.124867-.360229.30487-.424674s.381102-.01083.50513.134674q26.42,31.71,52.31,64.71c.436165.555745,1.103536.880212,1.81.88l17.73.07c.142492.000232.278672-.057994.375555-.160577s.145634-.240164.134445-.379423q-.42-5.4-.43-10.62-.08-54.17-.02-108.28q0-.48-.49-.48h-26q-.47,0-.47.48-.04,31.99.05,64.92q0,.29-.33.4" fill="none" stroke="#808987" stroke-width="2"/><path d="M307.11,622.5c6.15-1.55,10.78-8.3,12.5-14.05c6.97-23.37-10.71-43.35-33.96-43.69q-18.69-.28-52.58-.53-.56,0-.56.56l.06,118.95c0,.303757.246243.55.55.55q24.12.09,50.92.19q6.31.02,10.62-.94c20.93-4.66,35.53-21.49,29.61-43.55q-2.87-10.7-14.81-15.38-1.34-.53-2.49-1.31c-.144702-.101749-.21838-.278427-.188148-.451178s.158732-.309347.328148-.348822" fill="none" stroke="#808987" stroke-width="2"/><path d="M354.35,683.63c-.002722.189125.071207.371302.204953.505047s.315922.207675.505047.204953l25.08-.18c.378828-.005374.684626-.311172.69-.69l.21-118.5c0-.185652-.07375-.363699-.205025-.494975s-.309323-.205025-.494975-.205025l-25.12-.02c-.185652,0-.363699.07375-.494975.205025s-.205025.309323-.205025.494975l-.17,118.68" fill="none" stroke="#808987" stroke-width="2"/><path d="M438.82,658.75q-.79,0-.22-.55l71.25-68.85q.6-.59.61-1.43l.12-23.09q0-.5-.49-.5l-103.36-.01c-.243005,0-.44.201472-.44.45l.07,24.4c0,.148521.059.290959.16402.39598s.247459.16402.39598.16402l63.13.12q1.93.01.54,1.34-14.06,13.5-27.02,26.48c-12.23,12.26-24.82,24.31-36.91,36.96q-.34.36-.34.85l-.04,28.31c-.000052.283328.226725.514551.51.52l103.37.07c.23196,0,.42-.18804.42-.42l.12-24.68q0-.42-.42-.42l-71.46-.11" fill="none" stroke="#808987" stroke-width="2"/><path d="M554.2,626.31q-1.12-13.55,6.59-24.89c2.02-2.96,5.23-5.81,7.94-8.6q.37-.38.11-.85-5.66-10.45-14.03-21c-.166941-.212652-.415157-.346128-.685922-.36885s-.540026.06733-.744078.24885q-5.83,5.2-10.45,9.97c-8.42,8.68-15.09,21.75-16.35,34.47q-2.96,29.89,18.17,51.85q15.19,15.79,38.26,18.17q9.84,1.01,19.59-.85c18.1-3.46,32.69-14.81,42.42-30.48q7.79-12.53,8.68-27.76c.59-10.12.17-19.41-3.54-28.71-.039771-.10836-.134817-.186903-.248729-.205543s-.229036.025511-.301271.115543c-6.81,8.52-14.69,16.04-23.04,23.39q-.47.41-.44,1.03.58,12.34-6.94,22.76-7.27,10.07-20.41,13.04c-20.58,4.66-42.74-9.26-44.58-31.33" fill="none" stroke="#808987" stroke-width="2"/><path d="M686.41,377.98c0-6.351275-5.148725-11.5-11.5-11.5s-11.5,5.148725-11.5,11.5s5.148725,11.5,11.5,11.5s11.5-5.148725,11.5-11.5" fill="none" stroke="#7d3508" stroke-width="2"/><path d="M258.93,590.13v22.1c0,.281665.228335.51.51.51h24.33c3.060598,0,5.995842-1.117836,8.160012-3.107597s3.379988-4.688456,3.379988-7.502403v-1.9c0-2.813947-1.215818-5.512642-3.379988-7.502403s-5.099414-3.107597-8.160012-3.107597h-24.33c-.281665,0-.51.228335-.51.51" fill="none" stroke="#808987" stroke-width="2"/><path d="M258.88,636.72l.04,21.56c0,.156478.062161.306547.172807.417193s.260715.172807.417193.172807l26.57-.04c7.11196-.012807,12.868976-4.932683,12.86-10.99v-.8c-.004301-2.909983-1.365942-5.698627-3.785271-7.752243s-5.698087-3.203917-9.114729-3.197757l-26.57.04c-.156478,0-.306547.062161-.417193.172807s-.172807.260715-.172807.417193" fill="none" stroke="#808987" stroke-width="2"/></g><path d="M584.69,473.51q.21.71-.43.86-.79.2-.25.77.32.33.12.86-.11.29.2.32.15.01.29.04c.211598.036726.392926.187832.48.4q.07.14-.01.3-.12.26-.4.19-3.88-1.09-7.71-2.33-1.62-.53-3.32-.75-1.65-.22-3.09-.77-.97-.37-2.01-.42-1.67-.07-2.8-1.21-.51-.53-1.24-.4-1.28.23-2.31-.62-.61-.5-1.4-.53-1.12-.04-1.85-.85-1.41-1.55-3.24-2.21-1.76-.64-3.3-1.81-.94-.72-2.05-1.08-.95-.31-1.83-.79-1.94-1.08-4.15-1.18-.37-.01-.26-.34.01-.06.01-.12-.07-.52-.58-.82-1.28-.74-2.65-1.25-1.69-.62-2.67-1.17-4.03-2.23-8.65-4.3-.89-.4-1.56-.97-1-.85-2.19-1.28c-.227869-.078283-.426748-.224826-.57-.42q-.68-.88-1.68-.38-.27.14-.44-.11-.93-1.4-2.43-1.9-.27-.09-.42-.35-.23-.39.01-.75.21-.31-.12-.48-1.11-.57-2.35-.74-.32-.04-.59.14-.7.47-1.6.57c-.239208.032506-.482378-.016833-.69-.14q-1.14-.66-2.54-.38-.07.01-.07-.06q0-.04,0-.08.01-.17.18-.16.36.02.7-.08.2-.06.05-.58q7.72.09,13.13-4.45c5.72-4.81,6.96-12.21,3.1-18.84-4.42-7.58-11.81-8.37-20.01-8.33q-36.66.17-69.5.42-7.71.06-11.06-6.56c-4.66-9.19,1.73-19.32,12.3-18.28c7.32.72,13.91-.95,18.4-7.2q2.38-3.31,2.07-7.63-.67-9.42-8.86-12.89-3.05-1.3-8.95-1.26-27.49.17-56.4.03-83.98-.41-134.25.06-9.11.09-12.33-6.69c-3.71-7.8,1.35-15.53,9.62-16.45q2.31-.26,5.13-.26q87.14.01,173.15-.12c6.15-.01,12.94-1.14,18.94-2.89c19.45-5.67,36.27-17.74,51.79-30.46q16.77-13.73,32.97-23.19c16.78-9.8,37.39-16.67,57.14-17.13q7.95-.19,16.44.2c.607055.025481,1.169583.285109,1.56.72q.27.29.18.69-.13.57-.63.87c-10.17,6.22-20.25,12.91-28.58,21.45q-6.64,6.81-13.12,15.33c-6.98,9.17-11.01,19.56-15.36,30.36-5.26,13.05-7.73,26.86-8.09,40.89q-.88,34.17,14.53,62.86q10.73,19.97,28.1,36.11Z" transform="translate(-225.60582-234.816607)" fill="#fa5700"/><path d="M721.36,341.4c2.16,6.11,4.31,12.42,6.99,18.47c2.72,6.13,5.06,12.43,7.78,18.44q9.26,20.48,17.24,39.17c.056856.132069.043937.283816-.034425.404374s-.211797.193969-.355575.195626q-16.39.14-29.78.05-2.73-.01-4.83,2.25-4.19,4.52-2.4,10.32c1.46,4.73,5.57,6.69,10.46,6.63q13.96-.16,26.84-.17c.265123.00181.508282.149655.630347.383261s.102643.51395-.050347.726739q-7.45,10.52-14.02,21.4c-.488148.816522-1.375679,1.311711-2.33,1.3l-23.3-.29c-.38795-.006707-.754974.18055-.98.5q-5.04,7.19-9.14,14.65c-.072969.138232-.068978.304428.010541.438999s.223174.218237.379459.221001l13.81-.01c.175396-.00112.342932.073292.461097.204798s.175901.307801.158903.485202q-.1.93-.45,1.82-2.62,6.7-6.06,12-8.42,12.97-15.81,20.59-4.61,4.76-13.95,11.67-.73.54-.66-.37c.15-2.03.5-3.93.34-5.99q-.31-4.03-.67-8.44c-1.54-18.53-15.35-37.97-31.07-47.87q-13.38-8.42-18.98-12.54-21.49-15.81-23.84-43.4-.39-4.6.1-9.85.05-.61-.56-.59c-22.16.72-40.41-11.27-47.97-32.02q-.31-.86.61-.87l25.7-.25q.65-.01,1.06.5q5.67,7.01,13.52,10.72q9.61,4.54,18.68,5.45q11.42,1.16,20.3-1.84c15.97-5.39,28.8-19.14,29.94-36.49q.53-8.03-3.37-15.27-6.86-12.73-20.79-12.25c-5.14.17-9.83,2.49-14.95,2.41q-3.03-.04-5.91-.08c-.333967-.004551-.622251-.235178-.7-.56q-1.48-5.78.36-11.14q4.57-13.37,16.61-21.03c10.11-6.43,22.34-9.56,34.44-8.8q23.17,1.46,40.4,17.48c16.76,15.59,24.65,38,23.45,60.93-.008693.154769-.098184.293545-.23558.365319s-.302421.065954-.43442-.015319l-16.4-10.23q-.4-.25-.24.19Zm-34.95,36.58c0-6.351275-5.148725-11.5-11.5-11.5s-11.5,5.148725-11.5,11.5s5.148725,11.5,11.5,11.5s11.5-5.148725,11.5-11.5Z" transform="translate(-225.60582-234.816604)" fill="#fa5700"/><circle r="12.77" transform="translate(117.63418 60.773389)" fill="#fa5700"/><path d="M453.92,305.68c-4.07,2.11-7.21,1.32-11.49,1.31q-18.59-.07-37.23.1-4.8.04-7.14-1.33c-10.03-5.87-5.79-21.1,5.24-22.53q3.18-.41,7.22-.37q17.62.17,33.8.05c7.97-.05,14.45,2.23,15.57,10.99.65,5.06-1.4,9.41-5.97,11.78Z" transform="translate(-225.60582-234.816611)" fill="#fa5700"/><path d="M605.47,313.86c1.47,9.56,8.17,17.85,18.24,18.07q11.11.24,25.44.21.82,0,.82.82c.02,3.13.79,6.23-.32,9.3-3.79,10.4-14.01,16.37-24.66,16.5q-4.78.05-10.24-1.26c-18.6-4.49-30.69-24.02-26.39-42.52q3.11-13.41,14.47-21.83c1.01-.76,2.32-.93,3.51-1.19.372226-.08076.759214.050862,1.0033.341241s.304529.691044.1567,1.038759c-3,7.1-3.15,13.26-2.03,20.52Z" transform="translate(-225.60582-234.816607)" fill="#fff"/><ellipse rx="13.14" ry="12.72" transform="matrix(.990024-.140901 0.140901 0.990024 22.04418 168.463397)" fill="#ec4e00"/><rect width="54.68" height="24.42" rx="11.65" ry="11.65" transform="matrix(.999976 0.006981-.006981 0.999976 113.160084 155.532834)" fill="#ec4e00"/><path d="M513.28,446.15q.15.52-.05.58-.34.1-.7.08-.17-.01-.18.16q0,.04,0,.08q0,.07.07.06q1.4-.28,2.54.38c.207622.123167.450792.172506.69.14q.9-.1,1.6-.57.27-.18.59-.14q1.24.17,2.35.74.33.17.12.48-.24.36-.01.75.15.26.42.35q1.5.5,2.43,1.9.17.25.44.11q1-.5,1.68.38c.143252.195174.342131.341717.57.42q1.19.43,2.19,1.28.67.57,1.56.97q4.62,2.07,8.65,4.3.98.55,2.67,1.17q1.37.51,2.65,1.25.51.3.58.82q0,.06-.01.12-.11.33.26.34q2.21.1,4.15,1.18.88.48,1.83.79q1.11.36,2.05,1.08q1.54,1.17,3.3,1.81q1.83.66,3.24,2.21.73.81,1.85.85.79.03,1.4.53q1.03.85,2.31.62.73-.13,1.24.4q1.13,1.14,2.8,1.21q1.04.05,2.01.42q1.44.55,3.09.77q1.7.22,3.32.75q3.83,1.24,7.71,2.33.28.07.4-.19.08-.16.01-.3c-.087074-.212168-.268402-.363274-.48-.4q-.14-.03-.29-.04-.31-.03-.2-.32.2-.53-.12-.86-.54-.57.25-.77.64-.15.43-.86q15.05,12.22,28.32,18.27q18.9,8.61,38.5,15.85c.294276.107348.49274.389167.5.71q.15,8.95-.21,18.66-.4,10.83-2.39,18.57-4.1,16-10.46,27.17-10.31,18.11-26.25,32.97c-5.17,4.82-11.78,9.06-17.79,13.53q-1.33.98-.98-.63c1.59-7.43-.05-15.41-1.9-22.86-3.61-14.54-12.75-28.1-23.42-38.39q-3.23-3.13-7.11-5.96c-3.3-2.41-6.38-5.17-9.86-7.21Q531.55,532.43,509.02,530q-7.25-.78-16.29-.77-95.54.18-189.22.15c-6.24,0-10.69-3.32-12.71-9.55-2.26-6.98,4.97-14.2,11.77-14.19q74.04.14,162.53-.12q2.77-.01,5.45-.74c5.96-1.62,10.77-7.68,11.11-13.7.56-10.12-8.03-16.35-17.77-16.36q-49.16-.03-119.56.2-5.49.01-8.44-1.31c-11.11-4.98-11.34-21.95.85-26.36q2.68-.97,7.77-.98q84.4-.19,168.77-.12Z" transform="translate(-225.60582-234.816606)" fill="#ec4e00"/><ellipse rx="13.53" ry="13.14" transform="matrix(.999123-.041876 0.041876 0.999123 55.17418 226.603392)" fill="#ec4e00"/><path d="M751.01,630.21q.33-.11.33-.4-.09-32.93-.05-64.92q0-.48.47-.48h26q.49,0,.49.48-.06,54.11.02,108.28.01,5.22.43,10.62c.011189.139259-.037561.276841-.134445.379423s-.233063.160809-.375555.160577l-17.73-.07c-.706464.000212-1.373835-.324255-1.81-.88q-25.89-33-52.31-64.71c-.124028-.145504-.325128-.199119-.50513-.134674s-.301376.233514-.30487.424674l-.03,64.73c0,.381076-.308924.69-.69.69l-25.54.12c-.193608,0-.379286-.07691-.516188-.213812s-.213812-.32258-.213812-.516188l.3-102.4q0-.98.68-1.7l15.32-15.97c.108553-.112984.26014-.174307.416716-.168578s.303278.077964.403284.198578l55.03,66.39c.078717.09623.207481.132445.32.09Z" transform="translate(-225.60582-234.816603)" fill="#fff"/><path d="M306.97,623.3q1.15.78,2.49,1.31q11.94,4.68,14.81,15.38c5.92,22.06-8.68,38.89-29.61,43.55q-4.31.96-10.62.94-26.8-.1-50.92-.19c-.303757,0-.55-.246243-.55-.55l-.06-118.95q0-.56.56-.56q33.89.25,52.58.53c23.25.34,40.93,20.32,33.96,43.69-1.72,5.75-6.35,12.5-12.5,14.05-.169416.039475-.297917.17607-.328148.348822s.043446.349429.188148.451178Zm-48.04-33.17v22.1c0,.281665.228335.51.51.51h24.33c3.060598,0,5.995842-1.117836,8.160012-3.107597s3.379988-4.688456,3.379988-7.502403v-1.9c0-2.813947-1.215818-5.512642-3.379988-7.502403s-5.099414-3.107597-8.160012-3.107597h-24.33c-.281665,0-.51.228335-.51.51Zm-.05,46.59l.04,21.56c0,.156478.062161.306547.172807.417193s.260715.172807.417193.172807l26.57-.04c7.11196-.012807,12.868976-4.932683,12.86-10.99v-.8c-.004301-2.909983-1.365942-5.698627-3.785271-7.752243s-5.698087-3.203917-9.114729-3.197757l-26.57.04c-.156478,0-.306547.062161-.417193.172807s-.172807.260715-.172807.417193Z" transform="translate(-225.60582-234.816604)" fill="#fff"/><path d="M354.35,683.63l.17-118.68c0-.185652.07375-.363699.205025-.494975s.309323-.205025.494975-.205025l25.12.02c.185652,0,.363699.07375.494975.205025s.205025.309323.205025.494975l-.21,118.5c-.005374.378828-.311172.684626-.69.69l-25.08.18c-.189125.002722-.371302-.071207-.505047-.204953s-.207675-.315922-.204953-.505047Z" transform="translate(-225.60582-234.816603)" fill="#fff"/><path d="M438.82,658.75l71.46.11q.42,0,.42.42l-.12,24.68c0,.23196-.18804.42-.42.42l-103.37-.07c-.283275-.005449-.510052-.236672-.51-.52l.04-28.31q0-.49.34-.85c12.09-12.65,24.68-24.7,36.91-36.96q12.96-12.98,27.02-26.48q1.39-1.33-.54-1.34l-63.13-.12c-.148521,0-.290959-.059-.39598-.16402s-.16402-.247459-.16402-.39598l-.07-24.4c0-.248528.196995-.45.44-.45l103.36.01q.49,0,.49.5l-.12,23.09q-.01.84-.61,1.43L438.6,658.2q-.57.55.22.55Z" transform="translate(-225.60582-234.816603)" fill="#fff"/><path d="M554.2,626.31c1.84,22.07,24,35.99,44.58,31.33q13.14-2.97,20.41-13.04q7.52-10.42,6.94-22.76-.03-.62.44-1.03c8.35-7.35,16.23-14.87,23.04-23.39.072235-.090032.187358-.134184.301271-.115543s.208958.097183.248729.205543c3.71,9.3,4.13,18.59,3.54,28.71q-.89,15.23-8.68,27.76c-9.73,15.67-24.32,27.02-42.42,30.48q-9.75,1.86-19.59.85-23.07-2.38-38.26-18.17-21.13-21.96-18.17-51.85c1.26-12.72,7.93-25.79,16.35-34.47q4.62-4.77,10.45-9.97c.204052-.18152.473312-.271571.744078-.24885s.518981.156198.685922.36885q8.37,10.55,14.03,21q.26.47-.11.85c-2.71,2.79-5.92,5.64-7.94,8.6q-7.71,11.34-6.59,24.89Z" transform="translate(-225.60582-234.8166)" fill="#fff"/></svg>
